<mxfile host="app.diagrams.net" modified="2023-05-01T14:38:16.319Z" agent="Mozilla/5.0 (Windows NT 10.0; Win64; x64) AppleWebKit/537.36 (KHTML, like Gecko) Chrome/112.0.0.0 Safari/537.36" etag="f7FADL3JCPrFjHIoHNkF" version="21.2.3" type="device">
  <diagram name="Trang-1" id="1NJNEGzS6GflC0XltkN0">
    <mxGraphModel dx="1163" dy="599" grid="1" gridSize="10" guides="1" tooltips="1" connect="1" arrows="1" fold="1" page="1" pageScale="1" pageWidth="827" pageHeight="1169" math="0" shadow="0">
      <root>
        <mxCell id="0" />
        <mxCell id="1" parent="0" />
        <mxCell id="0vKEYrBOWYvh9GlxBcbb-1" value="&lt;font style=&quot;font-size: 14px;&quot;&gt;Actor&lt;/font&gt;" style="shape=umlActor;verticalLabelPosition=bottom;verticalAlign=top;html=1;outlineConnect=0;" parent="1" vertex="1">
          <mxGeometry x="80" y="660" width="30" height="60" as="geometry" />
        </mxCell>
        <mxCell id="0vKEYrBOWYvh9GlxBcbb-41" value="" style="whiteSpace=wrap;html=1;aspect=fixed;strokeWidth=1;fontSize=18;" parent="1" vertex="1">
          <mxGeometry x="170" y="390" width="610" height="610" as="geometry" />
        </mxCell>
        <mxCell id="0vKEYrBOWYvh9GlxBcbb-50" value="Return items" style="ellipse;whiteSpace=wrap;html=1;strokeWidth=1;fontSize=18;" parent="1" vertex="1">
          <mxGeometry x="190" y="650" width="120" height="80" as="geometry" />
        </mxCell>
        <mxCell id="0vKEYrBOWYvh9GlxBcbb-52" value="" style="endArrow=none;html=1;rounded=0;fontSize=18;entryX=0;entryY=0.5;entryDx=0;entryDy=0;" parent="1" source="0vKEYrBOWYvh9GlxBcbb-1" target="0vKEYrBOWYvh9GlxBcbb-50" edge="1">
          <mxGeometry width="50" height="50" relative="1" as="geometry">
            <mxPoint x="190" y="620" as="sourcePoint" />
            <mxPoint x="240" y="570" as="targetPoint" />
          </mxGeometry>
        </mxCell>
        <mxCell id="0vKEYrBOWYvh9GlxBcbb-55" value="Login" style="ellipse;whiteSpace=wrap;html=1;strokeWidth=1;fontSize=18;" parent="1" vertex="1">
          <mxGeometry x="390" y="530" width="120" height="80" as="geometry" />
        </mxCell>
        <mxCell id="0vKEYrBOWYvh9GlxBcbb-59" value="" style="endArrow=open;html=1;rounded=0;dashed=1;fontSize=18;entryX=0;entryY=1;entryDx=0;entryDy=0;exitX=1;exitY=0;exitDx=0;exitDy=0;endFill=0;" parent="1" source="0vKEYrBOWYvh9GlxBcbb-50" target="0vKEYrBOWYvh9GlxBcbb-55" edge="1">
          <mxGeometry width="50" height="50" relative="1" as="geometry">
            <mxPoint x="350" y="650" as="sourcePoint" />
            <mxPoint x="400" y="600" as="targetPoint" />
          </mxGeometry>
        </mxCell>
        <mxCell id="0vKEYrBOWYvh9GlxBcbb-72" value="&amp;lt;&amp;lt;include&amp;gt;&amp;gt;" style="edgeLabel;html=1;align=center;verticalAlign=middle;resizable=0;points=[];fontSize=18;" parent="0vKEYrBOWYvh9GlxBcbb-59" vertex="1" connectable="0">
          <mxGeometry x="0.7019" y="-2" relative="1" as="geometry">
            <mxPoint x="-81" as="offset" />
          </mxGeometry>
        </mxCell>
        <mxCell id="0vKEYrBOWYvh9GlxBcbb-61" value="Select contract" style="ellipse;whiteSpace=wrap;html=1;strokeWidth=1;fontSize=18;" parent="1" vertex="1">
          <mxGeometry x="410" y="749.9999999999998" width="120" height="80" as="geometry" />
        </mxCell>
        <mxCell id="0vKEYrBOWYvh9GlxBcbb-62" value="" style="endArrow=classic;html=1;rounded=0;dashed=1;fontSize=18;exitX=1;exitY=1;exitDx=0;exitDy=0;entryX=0;entryY=0.5;entryDx=0;entryDy=0;" parent="1" source="0vKEYrBOWYvh9GlxBcbb-50" target="0vKEYrBOWYvh9GlxBcbb-61" edge="1">
          <mxGeometry width="50" height="50" relative="1" as="geometry">
            <mxPoint x="420" y="790" as="sourcePoint" />
            <mxPoint x="470" y="740" as="targetPoint" />
          </mxGeometry>
        </mxCell>
        <mxCell id="0vKEYrBOWYvh9GlxBcbb-73" value="&amp;lt;&amp;lt;include&amp;gt;&amp;gt;" style="edgeLabel;html=1;align=center;verticalAlign=middle;resizable=0;points=[];fontSize=18;" parent="0vKEYrBOWYvh9GlxBcbb-62" vertex="1" connectable="0">
          <mxGeometry x="-0.1834" y="-1" relative="1" as="geometry">
            <mxPoint x="40" y="-18" as="offset" />
          </mxGeometry>
        </mxCell>
        <mxCell id="0vKEYrBOWYvh9GlxBcbb-65" value="View list contract" style="ellipse;whiteSpace=wrap;html=1;strokeWidth=1;fontSize=18;" parent="1" vertex="1">
          <mxGeometry x="640" y="750" width="120" height="80" as="geometry" />
        </mxCell>
        <mxCell id="0vKEYrBOWYvh9GlxBcbb-70" value="return items function" style="shape=umlFrame;whiteSpace=wrap;html=1;pointerEvents=0;strokeWidth=1;fontSize=18;width=160;height=60;" parent="1" vertex="1">
          <mxGeometry x="170" y="390" width="610" height="610" as="geometry" />
        </mxCell>
        <mxCell id="GikKUaxGpI-z1x5vT-8D-4" value="" style="endArrow=classic;html=1;rounded=0;entryX=0;entryY=0.5;entryDx=0;entryDy=0;exitX=1;exitY=0.5;exitDx=0;exitDy=0;dashed=1;" edge="1" parent="1" source="0vKEYrBOWYvh9GlxBcbb-61" target="0vKEYrBOWYvh9GlxBcbb-65">
          <mxGeometry width="50" height="50" relative="1" as="geometry">
            <mxPoint x="500" y="920" as="sourcePoint" />
            <mxPoint x="550" y="870" as="targetPoint" />
          </mxGeometry>
        </mxCell>
        <mxCell id="GikKUaxGpI-z1x5vT-8D-5" value="&lt;font style=&quot;font-size: 18px;&quot;&gt;&amp;lt;&amp;lt;include&amp;gt;&amp;gt;&lt;/font&gt;" style="edgeLabel;html=1;align=center;verticalAlign=middle;resizable=0;points=[];" vertex="1" connectable="0" parent="GikKUaxGpI-z1x5vT-8D-4">
          <mxGeometry x="-0.1591" relative="1" as="geometry">
            <mxPoint x="4" y="-20" as="offset" />
          </mxGeometry>
        </mxCell>
        <mxCell id="GikKUaxGpI-z1x5vT-8D-6" value="" style="endArrow=classic;html=1;rounded=0;entryX=0.5;entryY=1;entryDx=0;entryDy=0;exitX=0.5;exitY=0;exitDx=0;exitDy=0;dashed=1;" edge="1" parent="1" source="GikKUaxGpI-z1x5vT-8D-7">
          <mxGeometry width="50" height="50" relative="1" as="geometry">
            <mxPoint x="249.84" y="820" as="sourcePoint" />
            <mxPoint x="249.84" y="730" as="targetPoint" />
          </mxGeometry>
        </mxCell>
        <mxCell id="GikKUaxGpI-z1x5vT-8D-8" value="&lt;font style=&quot;font-size: 17px;&quot;&gt;&amp;lt;&amp;lt;extend&amp;gt;&amp;gt;&lt;/font&gt;" style="edgeLabel;html=1;align=center;verticalAlign=middle;resizable=0;points=[];rotation=90;fontSize=17;" vertex="1" connectable="0" parent="GikKUaxGpI-z1x5vT-8D-6">
          <mxGeometry x="-0.1672" relative="1" as="geometry">
            <mxPoint x="20" y="-8" as="offset" />
          </mxGeometry>
        </mxCell>
        <mxCell id="GikKUaxGpI-z1x5vT-8D-7" value="&lt;font style=&quot;font-size: 18px;&quot;&gt;Send Email&lt;/font&gt;" style="ellipse;whiteSpace=wrap;html=1;" vertex="1" parent="1">
          <mxGeometry x="190" y="830" width="120" height="80" as="geometry" />
        </mxCell>
      </root>
    </mxGraphModel>
  </diagram>
</mxfile>
